<svg width="63" height="63" viewBox="0 0 63 63" fill="none" xmlns="http://www.w3.org/2000/svg">
<g clip-path="url(#clip0)">
<path d="M62.7782 60.854C62.7782 61.9088 61.9132 62.7738 60.8584 62.7738H2.14925C1.09448 62.7738 0.229492 61.9088 0.229492 60.854V2.14046C0.229492 1.0857 1.09448 0.220703 2.14925 0.220703H60.8628C61.9176 0.220703 62.7826 1.0857 62.7826 2.14046V60.854H62.7782Z" fill="#C57C5A"/>
<path d="M31.5056 0.220703H25.2476V11.2273H31.5056V0.220703Z" fill="#807371"/>
<path d="M37.7545 0.220703H31.5009V11.2273H37.7545V0.220703Z" fill="#5C514D"/>
<path d="M55.823 11.6289C54.8609 11.6289 53.8635 11.4127 52.8882 11.2008C51.0479 10.7992 49.1414 10.3844 47.4688 11.4171L47.354 10.252C49.1061 9.17518 51.0523 9.59885 52.9324 10.0049C54.4505 10.3359 55.8804 10.6492 57.2176 10.2388L57.2794 11.4303C56.8072 11.5716 56.3173 11.6289 55.823 11.6289Z" fill="#CDC4C2"/>
<path d="M55.823 13.7295C54.8609 13.7295 53.8635 13.5133 52.8882 13.3014C51.0479 12.8998 49.1414 12.485 47.4688 13.5177L47.354 12.3526C49.1061 11.2758 51.0523 11.6994 52.9324 12.1054C54.4505 12.4364 55.8804 12.7498 57.2176 12.3393L57.2794 13.5309C56.8072 13.6721 56.3173 13.7295 55.823 13.7295Z" fill="#CDC4C2"/>
<path d="M46.5375 13.7295C47.9195 13.7295 49.0398 12.6091 49.0398 11.2272C49.0398 9.84517 47.9195 8.72485 46.5375 8.72485C45.1555 8.72485 44.0352 9.84517 44.0352 11.2272C44.0352 12.6091 45.1555 13.7295 46.5375 13.7295Z" fill="#CDC4C2"/>
<path d="M46.5377 16.0908C43.8589 16.0908 41.6743 13.9106 41.6743 11.2274C41.6743 8.54415 43.8545 6.36401 46.5377 6.36401C49.2166 6.36401 51.4011 8.54415 51.4011 11.2274C51.4011 13.9106 49.221 16.0908 46.5377 16.0908ZM46.5377 7.1275C44.2737 7.1275 42.4334 8.96782 42.4334 11.2318C42.4334 13.4958 44.2737 15.3361 46.5377 15.3361C48.8017 15.3361 50.642 13.4958 50.642 11.2318C50.642 8.96782 48.8017 7.1275 46.5377 7.1275Z" fill="#CDC4C2"/>
<path d="M46.5376 16.2805C43.7529 16.2805 41.4845 14.0121 41.4845 11.2273C41.4845 8.44259 43.7529 6.17419 46.5376 6.17419C49.3224 6.17419 51.5908 8.44259 51.5908 11.2273C51.5908 14.0121 49.3268 16.2805 46.5376 16.2805ZM46.5376 6.55815C43.9647 6.55815 41.8684 8.65443 41.8684 11.2273C41.8684 13.8003 43.9647 15.8965 46.5376 15.8965C49.1105 15.8965 51.2068 13.8003 51.2068 11.2273C51.2068 8.65443 49.1149 6.55815 46.5376 6.55815ZM46.5376 15.5214C44.1677 15.5214 42.2435 13.5972 42.2435 11.2273C42.2435 8.85744 44.1721 6.93327 46.5376 6.93327C48.9075 6.93327 50.8317 8.85744 50.8317 11.2273C50.8317 13.5972 48.9075 15.5214 46.5376 15.5214ZM46.5376 7.31722C44.3795 7.31722 42.6275 9.06927 42.6275 11.2273C42.6275 13.3854 44.3795 15.1375 46.5376 15.1375C48.6957 15.1375 50.4477 13.3854 50.4477 11.2273C50.4477 9.06927 48.6957 7.31722 46.5376 7.31722Z" fill="#CDC4C2"/>
<path d="M29.1845 55.6419C29.1845 56.22 28.7123 56.6967 28.1297 56.6967H7.35667C6.77854 56.6967 6.30191 56.2245 6.30191 55.6419V41.7005C6.30191 41.1224 6.77413 40.6458 7.35667 40.6458H28.1297C28.7079 40.6458 29.1845 41.118 29.1845 41.7005V55.6419Z" fill="white"/>
<path d="M27.4369 42.8214H8.04517V45.3811H27.4369V42.8214Z" fill="#BFC5CA"/>
<path d="M27.4369 47.5348H8.04517V50.0944H27.4369V47.5348Z" fill="#BFC5CA"/>
<path d="M27.4369 52.2524H8.04517V54.8121H27.4369V52.2524Z" fill="#BFC5CA"/>
<path fill-rule="evenodd" clip-rule="evenodd" d="M50.2579 51.6392C53.6161 47.5436 55.5821 43.4334 55.5821 39.6688C55.5821 34.3192 50.9784 29.9644 45.3267 29.9644C39.675 29.9644 35.0713 34.3192 35.0713 39.6688C35.0713 43.4334 37.0374 47.5436 40.3955 51.6392C42.1254 53.7491 43.8988 55.4918 45.3267 56.7176C46.7552 55.4913 48.5282 53.7487 50.2579 51.6392Z" fill="white"/>
<path fill-rule="evenodd" clip-rule="evenodd" d="M45.3265 44.2315C43.1102 44.2315 41.3135 42.4349 41.3135 40.2186C41.3135 38.0022 43.1102 36.2056 45.3265 36.2056C47.5428 36.2056 49.3395 38.0022 49.3395 40.2186C49.3395 42.4349 47.5428 44.2315 45.3265 44.2315Z" fill="#C57C5A"/>
</g>
<defs>
<clipPath id="clip0">
<rect width="62.5487" height="62.5487" fill="white" transform="translate(0.229492 0.220703)"/>
</clipPath>
</defs>
</svg>
