<svg width="64" height="64" viewBox="0 0 64 64" fill="none" xmlns="http://www.w3.org/2000/svg">
<g clip-path="url(#clip0)">
<path d="M61.7152 0H2.2848C1.0304 0 0 1.04341 0 2.32366V24.5489L0.0128 22.3213V22.2188C0.0128 22.2188 26.9184 3.66153 28.3072 2.65653C30.3232 1.19704 33.3888 0.902581 35.7248 2.59252C37.5424 3.90478 63.9872 22.2252 63.9872 22.2252H64V2.32366C64 1.04341 62.9696 0 61.7152 0Z" fill="#CDC4C2"/>
<path d="M64 24.5489V24.5425V22.2252H63.9872C63.9872 22.2252 37.536 3.91114 35.7248 2.59247C33.3888 0.902537 30.3296 1.2034 28.3072 2.65649C26.9184 3.66149 0.0128 22.2188 0.0128 22.2188V22.3212L0 24.5489H0.0128H64ZM0.0128 24.5489H2.9888L26.8416 42.5045C27.6224 41.8835 28.1472 41.4803 28.3136 41.3586C30.3296 39.8991 33.3952 39.6047 35.7312 41.2946C35.9296 41.4418 36.4416 41.8387 37.1776 42.4212L60.9152 24.5553H64L0.0128 24.5489ZM63.9872 22.2316L64 22.2188V24.4144L63.9872 22.2316Z" fill="#00C1AA"/>
<path d="M28.3071 41.3586C30.3231 39.8991 33.3887 39.6047 35.7247 41.2946C35.9231 41.4418 36.4351 41.8387 37.1711 42.4212L56.1279 28.1464V8.59046C56.1279 7.48944 55.2319 6.59326 54.1311 6.59326H9.35032C8.24952 6.59326 7.35352 7.48944 7.35352 8.59046V27.8327L26.8415 42.5044C27.6223 41.8835 28.1471 41.4802 28.3071 41.3586Z" fill="white"/>
<path d="M36.3778 17.2258C36.3778 17.6355 36.045 17.9684 35.6354 17.9684H14.3554C13.9458 17.9684 13.613 17.6355 13.613 17.2258V14.1084C13.613 13.6987 13.9458 13.3658 14.3554 13.3658H35.6354C36.045 13.3658 36.3778 13.6987 36.3778 14.1084V17.2258Z" fill="#DC1928"/>
<path d="M36.3778 25.253C36.3778 25.6627 36.045 25.9956 35.6354 25.9956H14.3554C13.9458 25.9956 13.613 25.6627 13.613 25.253V22.1356C13.613 21.7259 13.9458 21.3931 14.3554 21.3931H35.6354C36.045 21.3931 36.3778 21.7259 36.3778 22.1356V25.253Z" fill="#DC1928"/>
<path d="M50.4002 33.0819C50.4002 33.6004 49.9778 34.0229 49.4594 34.0229H14.5538C14.0354 34.0229 13.613 33.6004 13.613 33.0819V30.3677C13.613 29.8492 14.0354 29.4268 14.5538 29.4268H49.4594C49.9778 29.4268 50.4002 29.8492 50.4002 30.3677V33.0819Z" fill="#DC1928"/>
<path d="M44.7105 27.1863V25.7268C43.6609 25.6692 42.7457 25.3939 41.9713 24.8946C41.1969 24.3953 40.6081 23.7168 40.1985 22.8462L42.3169 21.854C42.5857 22.4429 42.9249 22.8718 43.3474 23.1407C43.7698 23.4095 44.2241 23.5695 44.7105 23.6272V20.849C44.3265 20.7658 43.9106 20.6506 43.4626 20.5033C43.0082 20.3561 42.5857 20.1385 42.1953 19.8632C41.8049 19.5879 41.4721 19.2359 41.2161 18.807C40.9537 18.3781 40.8257 17.8532 40.8257 17.2259C40.8257 16.7138 40.9153 16.2529 41.1009 15.8368C41.2865 15.4207 41.5489 15.0622 41.8881 14.7614C42.2273 14.4605 42.6369 14.2237 43.1105 14.0572C43.5841 13.8908 44.1153 13.7948 44.7041 13.7692V12.8346H45.7474V13.8268C46.4514 13.9164 47.1298 14.1469 47.7762 14.5053C48.4226 14.8638 48.9665 15.4015 49.4081 16.1185L47.5137 17.2131C47.2449 16.8674 46.9762 16.5985 46.7074 16.4065C46.4322 16.2145 46.1121 16.0736 45.7409 15.984V18.4677C46.1825 18.5701 46.6306 18.711 47.0914 18.8838C47.5522 19.0566 47.9746 19.2871 48.3522 19.5687C48.7298 19.8504 49.0369 20.2025 49.2737 20.6122C49.5105 21.0218 49.6322 21.5211 49.6322 22.0972C49.6322 22.5709 49.5426 23.019 49.3698 23.4351C49.1969 23.8512 48.9473 24.2225 48.6145 24.5489C48.2881 24.8754 47.8785 25.1379 47.3985 25.3491C46.9185 25.5603 46.3682 25.682 45.7409 25.7332V27.2119H44.7105V27.1863ZM43.2897 16.9954C43.2897 17.3539 43.4177 17.6228 43.6737 17.7956C43.9297 17.9684 44.2754 18.1157 44.717 18.2309V15.888C44.5314 15.9008 44.3521 15.9264 44.1793 15.9648C44.0065 16.0032 43.8529 16.0672 43.7249 16.1569C43.5969 16.2465 43.4945 16.3553 43.4113 16.4961C43.3281 16.6306 43.2897 16.8034 43.2897 16.9954ZM47.2129 22.3597C47.2129 21.9756 47.0786 21.694 46.8162 21.5083C46.5474 21.3227 46.1953 21.1819 45.7601 21.0922V23.6592C46.2593 23.6015 46.6242 23.4607 46.8609 23.2367C47.0914 23.0126 47.2129 22.7182 47.2129 22.3597Z" fill="#DC1928"/>
<path d="M29.3184 40.7698L2.528 20.4969L0 22.2637L26.848 42.4981C27.6288 41.8836 28.1472 41.4803 28.3072 41.3587C28.6208 41.1347 28.96 40.9362 29.3184 40.7698Z" fill="#CDC4C2"/>
<path d="M56.1283 28.1465L37.1716 42.415C36.4356 41.8325 35.9235 41.4356 35.7251 41.2884C33.7539 39.8609 31.2643 39.8545 29.3251 40.7698C28.9667 40.9363 28.6276 41.1347 28.314 41.3588C28.1539 41.474 27.6291 41.8837 26.8547 42.4982L26.8484 42.5046L7.35395 27.8329L0.0131531 22.3086V62.0861V62.0925C0.0131531 62.1053 0.0195531 62.1181 0.0195531 62.1373C0.0259531 62.2589 0.0323531 62.3742 0.0579531 62.4894C0.0643531 62.5086 0.0707531 62.5278 0.0771531 62.5406C0.102753 62.6558 0.141153 62.7646 0.185953 62.8671C0.185953 62.8671 0.185953 62.8735 0.192353 62.8735C0.301153 63.1103 0.454753 63.3152 0.646753 63.488C0.646753 63.488 0.646753 63.488 0.640353 63.488C0.653153 63.4944 0.659553 63.5008 0.672353 63.5136C0.685153 63.5264 0.697953 63.5392 0.710753 63.552L0.717153 63.5456L0.723553 63.552C0.800353 63.616 0.883553 63.6736 0.966753 63.7248C0.979553 63.7312 0.998753 63.744 1.01155 63.7504C1.08835 63.7952 1.17155 63.8337 1.25475 63.8657C1.29955 63.8849 1.34435 63.8913 1.38915 63.9041C1.45315 63.9233 1.51075 63.9425 1.58115 63.9553C1.69635 63.9809 1.81155 63.9937 1.93315 63.9937H1.93955L62.1699 63.9873H62.2595C62.3043 63.9809 62.3428 63.9745 62.3811 63.9681C62.4259 63.9617 62.4771 63.9553 62.5219 63.9425C62.5924 63.9233 62.6563 63.9041 62.7267 63.8785C62.7715 63.8657 62.8163 63.8529 62.8547 63.8337C62.9443 63.7952 63.034 63.744 63.1171 63.6928C63.1811 63.6544 63.2323 63.6096 63.2899 63.5648C63.3155 63.5456 63.3411 63.5264 63.3667 63.5072L63.3731 63.5008C63.3795 63.5008 63.3795 63.4944 63.3859 63.4944L63.3923 63.488C63.4756 63.4112 63.5523 63.3216 63.6163 63.2319C63.6227 63.2191 63.6355 63.2127 63.6419 63.1999C63.7059 63.1103 63.7571 63.0143 63.8083 62.9183C63.8147 62.8991 63.8275 62.8863 63.8339 62.8671C63.8787 62.771 63.9044 62.675 63.9363 62.5726C63.9427 62.547 63.9556 62.5214 63.9619 62.4958C63.9875 62.387 63.9939 62.2781 64.0003 62.1629C64.0003 62.1437 64.0067 62.1245 64.0067 62.1053V62.0989V22.2253L56.1283 28.1465Z" fill="#DC1928"/>
<path d="M8.92789 54.5132C8.92789 54.8461 8.87029 55.1533 8.75509 55.4286C8.63989 55.7039 8.47349 55.9343 8.26229 56.1327C8.04469 56.3248 7.78229 56.472 7.47509 56.5808C7.16789 56.6833 6.82229 56.7409 6.43189 56.7409H4.97269V58.8213H3.40469V52.2792H6.43829C6.82229 52.2792 7.16789 52.3304 7.48149 52.4392C7.78869 52.5416 8.05109 52.6953 8.26869 52.8873C8.48629 53.0857 8.65269 53.3162 8.76149 53.5914C8.87029 53.8667 8.92789 54.174 8.92789 54.5132ZM6.41269 55.339C6.69429 55.339 6.91829 55.2686 7.08469 55.1277C7.25109 54.9869 7.33429 54.7821 7.33429 54.5004C7.33429 54.2124 7.25109 54.0075 7.08469 53.8667C6.91829 53.7323 6.69429 53.6619 6.41269 53.6619H4.97269V55.3326H6.41269V55.339Z" fill="white"/>
<path d="M14.784 56.2032C14.784 56.6065 14.72 56.9777 14.5856 57.317C14.4576 57.6563 14.2656 57.9443 14.0288 58.1812C13.7856 58.418 13.4912 58.6037 13.152 58.7381C12.8064 58.8661 12.4224 58.9365 12 58.9365C11.5776 58.9365 11.1936 58.8725 10.848 58.7381C10.5024 58.6101 10.2144 58.4244 9.97755 58.1812C9.74075 57.9443 9.55515 57.6563 9.42075 57.317C9.29275 56.9777 9.22235 56.6065 9.22235 56.2032C9.22235 55.7935 9.28635 55.4158 9.42075 55.0766C9.54875 54.7373 9.73435 54.4492 9.97755 54.2124C10.2144 53.9755 10.5088 53.7899 10.848 53.6555C11.1936 53.521 11.5776 53.457 12 53.457C12.4224 53.457 12.8064 53.521 13.152 53.6555C13.4976 53.7899 13.7856 53.9755 14.0288 54.2124C14.272 54.4492 14.4576 54.7373 14.5856 55.0766C14.72 55.4158 14.784 55.7935 14.784 56.2032ZM13.184 56.1904C13.184 55.7615 13.0816 55.403 12.8832 55.1278C12.6848 54.8525 12.3904 54.7117 11.9936 54.7117C11.6096 54.7117 11.3152 54.8525 11.1104 55.1278C10.9056 55.403 10.8032 55.7615 10.8032 56.1904C10.8032 56.6193 10.9056 56.9777 11.1104 57.253C11.3152 57.5346 11.6096 57.6691 11.9936 57.6691C12.384 57.6691 12.6848 57.5282 12.8832 57.253C13.088 56.9777 13.184 56.6257 13.184 56.1904Z" fill="white"/>
<path d="M20.1213 57.1442C20.1213 57.6947 19.9101 58.13 19.4813 58.4501C19.0525 58.7701 18.4637 58.9302 17.7213 58.9302C17.1453 58.9302 16.6269 58.8278 16.1725 58.6229C15.7117 58.4181 15.3469 58.098 15.0717 57.6563L16.0893 56.9778C16.1853 57.1186 16.3005 57.2466 16.4349 57.3427C16.5693 57.4451 16.7101 57.5283 16.8637 57.5859C17.0173 57.6499 17.1709 57.6947 17.3309 57.7203C17.4909 57.7523 17.6509 57.7651 17.8045 57.7651C18.0797 57.7651 18.2909 57.7267 18.4317 57.6499C18.5789 57.5731 18.6493 57.4643 18.6493 57.3363C18.6493 57.2466 18.6237 57.1698 18.5661 57.1122C18.5085 57.0546 18.4317 57.0034 18.3293 56.965C18.2269 56.9266 18.1117 56.8946 17.9709 56.869C17.8365 56.8498 17.6893 56.8242 17.5293 56.805C17.2221 56.7665 16.9341 56.7089 16.6717 56.6385C16.4093 56.5681 16.1789 56.4657 15.9869 56.3377C15.7949 56.2096 15.6413 56.0496 15.5325 55.8512C15.4237 55.6527 15.3725 55.4159 15.3725 55.1278C15.3725 54.8462 15.4301 54.6029 15.5517 54.3917C15.6669 54.1804 15.8269 54.0076 16.0253 53.8668C16.2237 53.7259 16.4605 53.6235 16.7293 53.5531C16.9981 53.4827 17.2797 53.4507 17.5805 53.4507C17.8749 53.4507 18.1501 53.4827 18.4061 53.5403C18.6621 53.5979 18.8925 53.6747 19.1037 53.7643C19.3149 53.854 19.4941 53.9628 19.6605 54.078C19.8205 54.1932 19.9613 54.3149 20.0765 54.4429L19.1805 55.2366C19.0077 55.0638 18.7901 54.9166 18.5213 54.7885C18.2525 54.6605 17.9389 54.5965 17.5869 54.5965C17.3757 54.5965 17.1965 54.6285 17.0493 54.6989C16.8957 54.7693 16.8253 54.8654 16.8253 54.987C16.8253 55.0702 16.8573 55.1406 16.9149 55.1854C16.9725 55.2366 17.0557 55.275 17.1581 55.3071C17.2605 55.3391 17.3821 55.3647 17.5293 55.3903C17.6701 55.4159 17.8237 55.4351 17.9837 55.4607C18.2909 55.5119 18.5725 55.5759 18.8349 55.6591C19.0973 55.7359 19.3213 55.8384 19.5197 55.9664C19.7117 56.0944 19.8653 56.248 19.9741 56.4401C20.0637 56.6385 20.1213 56.869 20.1213 57.1442Z" fill="white"/>
<path d="M24.512 58.4758C24.3264 58.6102 24.1216 58.7255 23.8848 58.8087C23.648 58.8919 23.3728 58.9367 23.0592 58.9367C22.7264 58.9367 22.432 58.8855 22.1824 58.7831C21.9264 58.6807 21.728 58.5142 21.5808 58.2838C21.472 58.1301 21.3952 57.9509 21.344 57.7653C21.2992 57.5732 21.2736 57.3492 21.2736 57.0803V54.7247H20.2944V53.5852H21.2736V51.8185H22.7776V53.5852H24.2688V54.7247H22.7776V57.0995C22.7776 57.3044 22.8288 57.4452 22.9248 57.5284C23.0208 57.6116 23.1552 57.65 23.3152 57.65C23.4432 57.65 23.5648 57.6308 23.6736 57.5796C23.7824 57.5348 23.872 57.4772 23.9552 57.4132L24.512 58.4758Z" fill="white"/>
<path d="M33.1582 56.9073C33.1582 57.4834 32.9598 57.9443 32.563 58.29C32.1662 58.6356 31.6094 58.8085 30.8798 58.8085H27.5838V52.2792H30.6814C31.3982 52.2792 31.955 52.4264 32.3454 52.7273C32.7358 53.0281 32.9278 53.4378 32.9278 53.9691C32.9278 54.2636 32.8574 54.5324 32.7102 54.7757C32.563 55.0189 32.3518 55.2174 32.0766 55.3582C32.4286 55.499 32.6974 55.7103 32.883 55.9791C33.0622 56.248 33.1582 56.5552 33.1582 56.9073ZM31.3534 54.1996C31.3534 53.9947 31.283 53.8475 31.1486 53.7579C31.0078 53.6683 30.8158 53.6234 30.5726 53.6234H29.1582V54.8269H30.5918C30.8286 54.8269 31.0142 54.7757 31.1486 54.6669C31.283 54.558 31.3534 54.4044 31.3534 54.1996ZM31.5454 56.7729C31.5454 56.5616 31.4814 56.3952 31.347 56.2608C31.2126 56.1327 31.0206 56.0623 30.771 56.0623H29.1518V57.4642H30.7582C31.0014 57.4642 31.1934 57.4066 31.3342 57.285C31.475 57.1698 31.5454 56.9969 31.5454 56.7729Z" fill="white"/>
<path d="M33.9391 52.9258V51.8055H35.4431V52.9258H33.9391ZM33.9391 58.8149V53.5723H35.4431V58.8149H33.9391Z" fill="white"/>
<path d="M36.4926 58.8149V51.8055H37.9966V58.8085H36.4926V58.8149Z" fill="white"/>
<path d="M39.0526 58.8149V51.8055H40.5566V58.8085H39.0526V58.8149Z" fill="white"/>
<path d="M43.104 53.5723V54.174C43.5328 53.6939 44.0704 53.457 44.7104 53.457C45.0752 53.457 45.408 53.5274 45.7024 53.6683C45.9968 53.8091 46.2464 54.0011 46.4512 54.2444C46.656 54.4876 46.816 54.7821 46.9248 55.115C47.0336 55.4478 47.0912 55.8063 47.0912 56.1968C47.0912 56.5873 47.0336 56.9521 46.9248 57.285C46.816 57.6179 46.656 57.9059 46.4512 58.1556C46.2464 58.3988 45.9968 58.5909 45.7024 58.7317C45.408 58.8661 45.0752 58.9365 44.7104 58.9365C44.0704 58.9365 43.5328 58.6997 43.104 58.2324V60.5304H41.6V53.5723H43.104ZM43.104 56.1904C43.104 56.3888 43.1296 56.5745 43.1808 56.7473C43.232 56.9201 43.3088 57.0738 43.4112 57.2082C43.5136 57.3426 43.6416 57.445 43.7952 57.5218C43.9488 57.5987 44.128 57.6371 44.3328 57.6371C44.5376 57.6371 44.7104 57.5987 44.8576 57.5218C45.0048 57.445 45.1264 57.3362 45.2288 57.2082C45.3248 57.0802 45.4016 56.9265 45.4464 56.7537C45.4912 56.5809 45.5168 56.3952 45.5168 56.1968C45.5168 55.9983 45.4912 55.8127 45.4464 55.6399C45.4016 55.467 45.3312 55.3134 45.2288 55.179C45.1328 55.0445 45.0112 54.9421 44.8576 54.8653C44.7104 54.7885 44.5376 54.7501 44.3328 54.7501C44.128 54.7501 43.9488 54.7885 43.7952 54.8653C43.6416 54.9421 43.5136 55.0445 43.4112 55.1726C43.3088 55.3006 43.232 55.4606 43.1808 55.6335C43.1296 55.8127 43.104 55.9983 43.104 56.1904Z" fill="white"/>
<path d="M53.0239 57.5154C53.0239 57.6307 53.0431 57.7139 53.0879 57.7651C53.1327 57.8163 53.1967 57.8355 53.2863 57.8355C53.4079 57.8355 53.4975 57.8163 53.5487 57.7651L53.7087 58.7061C53.6063 58.7701 53.4719 58.8149 53.3183 58.8405C53.1583 58.8789 53.0239 58.8917 52.9023 58.8917C52.6463 58.8917 52.4095 58.8405 52.1791 58.7445C51.9487 58.6485 51.7695 58.4564 51.6479 58.1684C51.4367 58.4436 51.1935 58.6421 50.9055 58.7573C50.6239 58.8725 50.3039 58.9365 49.9519 58.9365C49.5679 58.9365 49.2223 58.8661 48.9279 58.7253C48.6271 58.5845 48.3775 58.3924 48.1727 58.1492C47.9679 57.9059 47.8079 57.6179 47.6991 57.2786C47.5903 56.9457 47.5391 56.5873 47.5391 56.1968C47.5391 55.8063 47.5967 55.4414 47.7055 55.1086C47.8143 54.7757 47.9743 54.4876 48.1791 54.238C48.3839 53.9947 48.6335 53.8027 48.9279 53.6619C49.2223 53.5274 49.5551 53.457 49.9199 53.457C50.5663 53.457 51.0975 53.6939 51.5199 54.174V53.5723H53.0239V57.5154ZM51.5199 56.2032C51.5199 56.0047 51.4943 55.8191 51.4431 55.6463C51.3919 55.467 51.3151 55.3134 51.2127 55.179C51.1103 55.0445 50.9823 54.9421 50.8351 54.8653C50.6815 54.7885 50.5087 54.7501 50.3039 54.7501C50.0991 54.7501 49.9263 54.7885 49.7791 54.8653C49.6319 54.9421 49.5103 55.0509 49.4079 55.179C49.3119 55.307 49.2351 55.467 49.1903 55.6399C49.1391 55.8191 49.1199 56.0047 49.1199 56.1968C49.1199 56.3952 49.1455 56.5809 49.1903 56.7537C49.2415 56.9265 49.3119 57.0802 49.4079 57.2082C49.5039 57.3362 49.6255 57.445 49.7791 57.5154C49.9263 57.5923 50.0991 57.6307 50.3039 57.6307C50.5087 57.6307 50.6879 57.5923 50.8415 57.5154C50.9951 57.4386 51.1231 57.3362 51.2255 57.2082C51.3279 57.0802 51.4047 56.9265 51.4495 56.7537C51.4943 56.5873 51.5199 56.4016 51.5199 56.2032Z" fill="white"/>
<path d="M57.5424 57.7843C57.3312 58.0148 57.0944 58.1876 56.832 58.3092C56.5696 58.4309 56.2816 58.4885 55.9744 58.4885C55.68 58.4885 55.424 58.4373 55.2 58.3413C54.976 58.2452 54.7904 58.1108 54.6432 57.9444C54.496 57.7779 54.3872 57.5795 54.3168 57.3491C54.2464 57.1186 54.208 56.869 54.208 56.6001V53.5659H55.712V56.2544C55.712 56.3633 55.7248 56.4785 55.744 56.5809C55.7696 56.6897 55.808 56.7857 55.8656 56.8626C55.9232 56.9458 56.0064 57.0098 56.1088 57.061C56.2112 57.1122 56.352 57.1378 56.5184 57.1378C56.8 57.1378 57.0368 57.0482 57.2416 56.8754C57.44 56.6961 57.5424 56.4465 57.5424 56.1072V53.5531H59.0464V57.938C59.0464 58.3028 59.0016 58.6549 58.912 58.9942C58.8224 59.3335 58.6496 59.6215 58.4 59.8712C57.9008 60.3577 57.1776 60.5945 56.2304 60.5945C55.84 60.5945 55.4624 60.5497 55.0976 60.4537C54.7328 60.3577 54.4128 60.2168 54.1312 60.0376L54.6816 58.9302C54.912 59.071 55.1552 59.1798 55.4176 59.2438C55.68 59.3079 55.9424 59.3399 56.2048 59.3399C56.6144 59.3399 56.9408 59.2566 57.184 59.0838C57.4272 58.911 57.5488 58.6549 57.5488 58.2964V57.7843H57.5424Z" fill="white"/>
</g>
<defs>
<clipPath id="clip0">
<rect width="64" height="64" fill="white"/>
</clipPath>
</defs>
</svg>
