<svg width="64" height="64" viewBox="0 0 64 64" fill="none" xmlns="http://www.w3.org/2000/svg">
<path d="M64 62.0809C64 63.1375 63.1375 64 62.0809 64H1.91914C0.862485 64 0 63.1375 0 62.0809V1.91914C0 0.862485 0.862485 0 1.91914 0H62.0809C63.1375 0 64 0.862485 64 1.91914V62.0809Z" fill="#00C1AA"/>
<path d="M56.2873 43.7971C56.2873 44.3254 55.8538 44.7589 55.3254 44.7589H8.67447C8.14615 44.7589 7.71265 44.3254 7.71265 43.7971V39.4214C7.71265 38.8931 8.14615 38.4596 8.67447 38.4596H55.3299C55.8583 38.4596 56.2918 38.8931 56.2918 39.4214V43.7971H56.2873Z" fill="white"/>
<path d="M56.2873 53.4018C56.2873 53.9301 55.8538 54.3636 55.3254 54.3636H8.67447C8.14615 54.3636 7.71265 53.9301 7.71265 53.4018V49.0262C7.71265 48.4978 8.14615 48.0643 8.67447 48.0643H55.3299C55.8583 48.0643 56.2918 48.4978 56.2918 49.0262V53.4018H56.2873Z" fill="white"/>
<path d="M27.464 34.1878C27.464 34.7161 27.0305 35.1496 26.5022 35.1496H8.67447C8.14615 35.1496 7.71265 34.7161 7.71265 34.1878V29.8122C7.71265 29.2838 8.14615 28.8503 8.67447 28.8503H26.5067C27.035 28.8503 27.4685 29.2838 27.4685 29.8122V34.1878H27.464Z" fill="white"/>
<path d="M27.464 24.5786C27.464 25.1069 27.0305 25.5404 26.5022 25.5404H8.67447C8.14615 25.5404 7.71265 25.1069 7.71265 24.5786V20.2029C7.71265 19.6746 8.14615 19.2411 8.67447 19.2411H26.5067C27.035 19.2411 27.4685 19.6746 27.4685 20.2029V24.5786H27.464Z" fill="white"/>
<path d="M27.464 14.9738C27.464 15.5022 27.0305 15.9357 26.5022 15.9357H8.67447C8.14615 15.9357 7.71265 15.5022 7.71265 14.9738V10.5982C7.71265 10.0699 8.14615 9.63635 8.67447 9.63635H26.5067C27.035 9.63635 27.4685 10.0699 27.4685 10.5982V14.9738H27.464Z" fill="#ED1C24"/>
<path d="M56.2872 34.1878C56.2872 34.7162 55.8537 35.1496 55.3254 35.1496H31.7403C31.2119 35.1496 30.7784 34.7162 30.7784 34.1878V10.5982C30.7784 10.0699 31.2119 9.63635 31.7403 9.63635H55.3299C55.8582 9.63635 56.2917 10.0699 56.2917 10.5982V34.1878H56.2872Z" fill="white"/>
<path d="M46.913 17.06C47.5136 18.5366 47.4639 20.8983 49.8165 22.4246C51.3744 15.4886 47.3375 12.278 43.463 12.3818C39.3628 12.4902 35.6691 15.8182 36.8431 22.6323C39.5886 21.9369 41.0472 20.2752 42.3612 18.4237C41.9232 19.9997 41.0652 20.7899 41.2955 20.7267C43.9372 19.9545 44.8855 19.7739 46.913 17.06Z" fill="#190B12"/>
<path d="M43.4494 32.6389C29.9025 34.0071 36.2651 19.7287 37.0508 17.3941C39.3989 17.0555 40.2795 15.1363 43.2733 14.03V13.9081C43.332 13.9261 43.3952 13.9487 43.4539 13.9668C43.5126 13.9442 43.5713 13.9261 43.6346 13.9081V14.0345C46.6284 15.1408 47.509 17.06 49.8571 17.3987C50.6338 19.7287 56.9963 34.0071 43.4494 32.6389Z" fill="#190B12"/>
<path d="M49.0891 24.0051C49.0891 27.1705 46.628 29.7354 43.589 29.7354C40.5545 29.7354 38.089 27.1705 38.089 24.0051V19.3133C38.089 16.1479 40.55 13.583 43.589 13.583C46.628 13.583 49.0891 16.1479 49.0891 19.3133V24.0051Z" fill="#C57C5A"/>
<path d="M46.8898 23.8877C46.7769 23.8877 46.6866 23.7928 46.6866 23.6799C46.6866 23.3322 46.4021 23.0478 46.0544 23.0478C45.7067 23.0478 45.4222 23.3322 45.4222 23.6799C45.4222 23.7928 45.3319 23.8877 45.2145 23.8877C45.1016 23.8877 45.0068 23.7928 45.0068 23.6799C45.0068 23.1065 45.4764 22.6368 46.0499 22.6368C46.6234 22.6368 47.093 23.1065 47.093 23.6799C47.0975 23.7974 47.0072 23.8877 46.8898 23.8877Z" fill="#190B12"/>
<path d="M42.1216 23.8877C42.0087 23.8877 41.9184 23.7928 41.9184 23.6799C41.9184 23.3322 41.6339 23.0478 41.2862 23.0478C40.9385 23.0478 40.654 23.3322 40.654 23.6799C40.654 23.7928 40.5637 23.8877 40.4463 23.8877C40.3334 23.8877 40.2386 23.7928 40.2386 23.6799C40.2386 23.1065 40.7082 22.6368 41.2817 22.6368C41.8552 22.6368 42.3248 23.1065 42.3248 23.6799C42.3293 23.7974 42.239 23.8877 42.1216 23.8877Z" fill="#190B12"/>
<path d="M43.4491 13.4294C40.2204 13.4294 37.5833 16.2562 37.5833 19.7062C40.821 19.7062 43.4491 16.8929 43.4491 13.4294Z" fill="#190B12"/>
<path d="M43.449 13.4294C43.449 16.8974 46.0771 19.7062 49.3148 19.7062C49.3148 16.2517 46.6731 13.4294 43.449 13.4294Z" fill="#190B12"/>
<path d="M43.905 26.3577L43.6296 26.597L43.3541 26.3577C42.8935 26.466 42.7129 26.8499 42.2252 27.0395C42.5097 27.5227 42.9477 27.8117 43.6296 27.8117C44.3069 27.8117 44.7495 27.5182 45.0339 27.0395C44.5508 26.8499 44.3701 26.466 43.905 26.3577Z" fill="#ED1C24"/>
<path d="M39.6922 35.1496C39.5477 34.4587 39.0601 33.2937 37.4028 33.2937H36.2649C36.2649 33.2937 34.2645 33.2982 33.9574 35.1496H39.6922Z" fill="#FF9000"/>
<path d="M50.5977 35.1496V33.2892H47.2065L43.5398 34.82L39.8325 33.2892H36.7573L36.7122 35.1496H50.5977Z" fill="#FF9000"/>
<path d="M53.1083 35.1497C52.9367 34.373 52.3813 33.2396 50.5931 33.2937L49.2881 33.3434C49.2881 33.3434 47.545 33.2847 47.1883 35.1497H53.1083Z" fill="#FF9000"/>
<path d="M45.4542 28.6155H41.7288V33.3388H45.4542V28.6155Z" fill="#C57C5A"/>
<path d="M46.5922 35.1496L47.2064 33.2892H39.8323L40.4826 35.1496H46.5922Z" fill="white"/>
<path d="M42.6229 35.1497H44.5556C45.093 34.8246 45.4497 34.233 45.4497 33.5602V32.0384C45.4497 31.0089 44.6143 30.178 43.5893 30.178C42.5597 30.178 41.7288 31.0134 41.7288 32.0384V33.5602C41.7288 34.233 42.0901 34.82 42.6229 35.1497Z" fill="#C57C5A"/>
</svg>
