<svg width="60" height="60" viewBox="0 0 60 60" fill="none" xmlns="http://www.w3.org/2000/svg">
<g clip-path="url(#clip0)">
<path d="M60 57.8607C60 59.0399 59.0324 60 57.8607 60H2.13935C0.96762 60 0 59.0324 0 57.8607V2.13935C0 0.96762 0.96762 0 2.13935 0H57.8531C59.0324 0 59.9924 0.96762 59.9924 2.13935V57.8607H60Z" fill="#DA1A32"/>
<path d="M11.9517 50.8378C11.9517 51.1477 11.8987 51.4199 11.7929 51.6769C11.6871 51.9264 11.5359 52.1456 11.3393 52.3195C11.1428 52.4933 10.9009 52.6294 10.6212 52.7277C10.3415 52.826 10.024 52.8713 9.66867 52.8713H8.33064V54.7763H6.89432L6.88676 48.7816H9.66867C10.024 48.7816 10.3415 48.827 10.6212 48.9252C10.9009 49.0235 11.1428 49.1596 11.3393 49.341C11.5359 49.5224 11.6871 49.7341 11.7929 49.9911C11.8987 50.2482 11.9517 50.5279 11.9517 50.8378ZM9.65355 51.6013C9.91058 51.6013 10.1147 51.5408 10.2734 51.4123C10.4246 51.2838 10.5002 51.0948 10.5002 50.8378C10.5002 50.5732 10.4246 50.3842 10.2734 50.2633C10.1222 50.1423 9.91814 50.0743 9.65355 50.0743H8.33064V51.6013H9.65355Z" fill="white"/>
<path d="M18.5587 51.7828C18.5587 52.2136 18.4907 52.6219 18.3471 52.9998C18.2034 53.3778 18.0069 53.7029 17.7423 53.9826C17.4777 54.2623 17.1527 54.4815 16.7747 54.6478C16.3967 54.8141 15.9658 54.8897 15.482 54.8897C14.9982 54.8897 14.5749 54.8066 14.1969 54.6478C13.8189 54.4891 13.5014 54.2698 13.2368 53.9901C12.9722 53.7104 12.7681 53.3854 12.6321 53.0074C12.496 52.6294 12.4279 52.2212 12.4204 51.7903C12.4204 51.3594 12.4884 50.9512 12.6245 50.5732C12.7606 50.1953 12.9647 49.8702 13.2293 49.5905C13.4938 49.3108 13.8113 49.0916 14.1893 48.9253C14.5673 48.7665 14.9982 48.6833 15.4744 48.6833C15.9507 48.6833 16.3816 48.7665 16.7671 48.9253C17.1451 49.084 17.4701 49.3032 17.7347 49.5829C17.9993 49.8626 18.2034 50.1877 18.3395 50.5657C18.4907 50.9436 18.5587 51.3519 18.5587 51.7828ZM17.0695 51.7828C17.0695 51.5333 17.0317 51.3065 16.9637 51.0873C16.8956 50.8681 16.7898 50.6791 16.6537 50.5128C16.5177 50.354 16.3513 50.2255 16.1548 50.1272C15.9582 50.0365 15.7315 49.9911 15.4744 49.9911C15.2174 49.9911 14.9906 50.0365 14.7941 50.1348C14.5975 50.2255 14.4388 50.354 14.3027 50.5203C14.1742 50.6791 14.0684 50.8756 14.0003 51.0948C13.9323 51.3141 13.8945 51.5484 13.8945 51.7903C13.8945 52.0398 13.9323 52.2741 14.0003 52.4934C14.0684 52.7126 14.1666 52.9016 14.3027 53.0603C14.4312 53.2191 14.5975 53.3476 14.7941 53.4459C14.9906 53.5366 15.2174 53.5819 15.4744 53.5819C15.7315 53.5819 15.9582 53.5366 16.1548 53.4459C16.3513 53.3551 16.5177 53.2266 16.6462 53.0603C16.7822 52.9016 16.8805 52.7126 16.9485 52.4934C17.0317 52.2666 17.0695 52.0322 17.0695 51.7828Z" fill="white"/>
<path d="M27.0481 53.0225C27.0481 53.5517 26.8666 53.975 26.5038 54.2925C26.1409 54.61 25.6269 54.7688 24.9616 54.7688H21.9378L21.9303 48.774H24.7726C25.4303 48.774 25.9444 48.9101 26.2997 49.1823C26.655 49.4544 26.8364 49.8324 26.8364 50.3162C26.8364 50.5883 26.7684 50.8302 26.6323 51.057C26.4962 51.2838 26.3072 51.4577 26.0502 51.5938C26.3753 51.7223 26.6172 51.9113 26.791 52.1607C26.9649 52.4177 27.0481 52.705 27.0481 53.0225ZM25.3925 50.543C25.3925 50.354 25.332 50.2255 25.2035 50.1348C25.075 50.0516 24.9012 50.0063 24.6744 50.0063H23.3817V51.1099H24.697C24.9163 51.1099 25.0826 51.057 25.2111 50.9588C25.3245 50.868 25.3925 50.732 25.3925 50.543ZM25.574 52.9016C25.574 52.7126 25.5135 52.5538 25.3925 52.4329C25.2716 52.3119 25.0901 52.2514 24.8634 52.2514H23.3817V53.5366H24.8558C25.075 53.5366 25.2565 53.4836 25.385 53.3702C25.5059 53.2644 25.574 53.1057 25.574 52.9016Z" fill="white"/>
<path d="M32.7706 52.3724C32.7706 52.7428 32.7101 53.083 32.5892 53.393C32.4682 53.7029 32.3019 53.9675 32.0751 54.1867C31.8559 54.4059 31.5838 54.5722 31.2663 54.6932C30.9488 54.8141 30.601 54.8746 30.2079 54.8746C29.8148 54.8746 29.4671 54.8141 29.1496 54.6932C28.8321 54.5722 28.5675 54.4059 28.3483 54.1867C28.1291 53.9675 27.9627 53.7029 27.8418 53.393C27.7208 53.083 27.6604 52.7428 27.6604 52.3724C27.6604 51.9944 27.7208 51.6543 27.8418 51.3443C27.9627 51.0344 28.1291 50.7698 28.3483 50.5506C28.5675 50.3313 28.8321 50.1575 29.1496 50.0365C29.4671 49.9156 29.8148 49.8475 30.2079 49.8475C30.601 49.8475 30.9488 49.908 31.2663 50.029C31.5838 50.1499 31.8483 50.3238 32.0751 50.543C32.2944 50.7622 32.4682 51.0268 32.5892 51.3368C32.7101 51.6543 32.7706 51.9944 32.7706 52.3724ZM31.3041 52.3649C31.3041 51.9718 31.2133 51.6467 31.0319 51.3897C30.8505 51.1327 30.5783 51.0041 30.2155 51.0041C29.8602 51.0041 29.588 51.1327 29.4066 51.3897C29.2176 51.6467 29.1269 51.9718 29.1269 52.3649C29.1269 52.7579 29.2176 53.083 29.4066 53.34C29.5956 53.5971 29.8602 53.7256 30.2155 53.718C30.5783 53.718 30.8429 53.5895 31.0319 53.3325C31.2133 53.0906 31.3041 52.7579 31.3041 52.3649Z" fill="white"/>
<path d="M36.5352 54.7688L35.5827 53.1435L34.6226 54.7764H32.9595L34.6604 52.2742L33.1183 49.9685H34.736L35.5978 51.4275L36.4445 49.9685H38.0622L36.505 52.2817L38.2058 54.7764L36.5352 54.7688Z" fill="white"/>
<path d="M43.3464 52.3044C43.3464 52.38 43.3464 52.4556 43.3388 52.5312C43.3313 52.5992 43.3237 52.6672 43.3237 52.7202H39.869C39.8917 53.0528 40.0126 53.2947 40.2319 53.461C40.4511 53.6197 40.7384 53.7029 41.0861 53.7029C41.3582 53.7029 41.6153 53.65 41.8345 53.5517C42.0613 53.4459 42.2503 53.3098 42.409 53.1359L43.2935 53.9599C43.0213 54.2321 42.7038 54.4513 42.341 54.6176C41.9781 54.7839 41.5321 54.8671 41.0105 54.8671C40.5796 54.8671 40.2016 54.8066 39.8766 54.6781C39.5515 54.5496 39.2794 54.3757 39.0601 54.1565C38.8334 53.9372 38.667 53.6727 38.5537 53.3703C38.4403 53.0679 38.3873 52.7428 38.3873 52.3875C38.3873 52.0247 38.4403 51.6921 38.5612 51.3821C38.6746 51.0722 38.8409 50.8 39.0526 50.5732C39.2718 50.3465 39.5288 50.1726 39.8463 50.0441C40.1563 49.9156 40.5116 49.8475 40.9047 49.8475C41.2902 49.8475 41.6304 49.908 41.9328 50.029C42.2351 50.1499 42.4846 50.3162 42.6963 50.5354C42.9079 50.7547 43.0667 51.0117 43.1801 51.3141C43.2935 51.6089 43.3464 51.9415 43.3464 52.3044ZM41.9857 51.7828C41.9554 51.4728 41.8421 51.246 41.6531 51.0949C41.4641 50.9437 41.2222 50.8681 40.9349 50.8681C40.6325 50.8681 40.3831 50.9512 40.1941 51.1175C40.0051 51.2838 39.8993 51.5031 39.8766 51.7828H41.9857Z" fill="white"/>
<path d="M48.4037 53.2267C48.4037 53.7331 48.2072 54.1338 47.8141 54.4211C47.421 54.7159 46.8842 54.8595 46.1963 54.8595C45.6672 54.8595 45.1909 54.7688 44.7751 54.5798C44.3518 54.3908 44.0192 54.096 43.7697 53.6953L44.7071 53.0755C44.7978 53.204 44.9036 53.3174 45.0246 53.4156C45.1455 53.5064 45.2741 53.582 45.4177 53.6424C45.5538 53.7029 45.6974 53.7407 45.8486 53.7709C45.9922 53.8012 46.1434 53.8087 46.287 53.8087C46.5365 53.8087 46.733 53.7709 46.8616 53.7029C46.9901 53.6349 47.0581 53.5366 47.0581 53.4156C47.0581 53.3325 47.0354 53.2645 46.9825 53.2115C46.9296 53.1586 46.8616 53.1133 46.7633 53.0755C46.6726 53.0377 46.5592 53.015 46.4382 52.9923C46.3097 52.9696 46.1736 52.9545 46.03 52.9318C45.7503 52.894 45.4857 52.8487 45.2438 52.7806C45.0019 52.7126 44.7902 52.6219 44.6164 52.5085C44.4425 52.3951 44.2989 52.2439 44.2006 52.0625C44.1023 51.8811 44.0494 51.6618 44.0494 51.3972C44.0494 51.1402 44.1023 50.9134 44.2082 50.7244C44.314 50.5355 44.4652 50.3692 44.6466 50.2406C44.828 50.1121 45.0473 50.0139 45.2892 49.9534C45.5386 49.8929 45.7957 49.8551 46.0754 49.8551C46.3475 49.8551 46.597 49.8778 46.8313 49.9383C47.0657 49.9912 47.2773 50.0592 47.4739 50.1424C47.6629 50.2255 47.8367 50.3238 47.9804 50.4296C48.124 50.5355 48.2525 50.6489 48.3659 50.7622L47.5495 51.488C47.3907 51.3292 47.1866 51.1931 46.9447 51.0797C46.6952 50.9588 46.408 50.9059 46.0829 50.9059C45.8939 50.9059 45.7276 50.9361 45.5916 51.0042C45.4555 51.0646 45.3874 51.1553 45.3874 51.2687C45.3874 51.3443 45.4177 51.4048 45.4706 51.4502C45.5235 51.4955 45.5991 51.5333 45.6974 51.5636C45.7957 51.5938 45.9091 51.6165 46.0376 51.6392C46.1661 51.6618 46.3022 51.6845 46.4533 51.7072C46.733 51.7525 46.9976 51.813 47.2395 51.8886C47.4814 51.9567 47.6855 52.0549 47.867 52.1683C48.0408 52.2817 48.1845 52.4253 48.2827 52.5992C48.3583 52.7655 48.4037 52.9772 48.4037 53.2267Z" fill="white"/>
<path d="M43.7545 41.1616C43.7545 41.6076 43.3841 41.9781 42.9381 41.9781H17.9312C17.4852 41.9781 17.1147 41.6076 17.1147 41.1616V16.1623C17.1147 15.7162 17.4852 15.3458 17.9312 15.3458H42.9381C43.3841 15.3458 43.7545 15.7162 43.7545 16.1623V41.1616Z" fill="#CDC4C2"/>
<path d="M41.8042 28.6733C41.8042 28.628 41.7891 28.5826 41.7664 28.5448L39.4532 25.5588C39.4154 25.5134 39.3549 25.4832 39.2944 25.4832H30.926C29.8299 23.7521 27.9249 22.6937 25.8763 22.6937C22.5803 22.6937 19.9042 25.3698 19.9042 28.6658C19.9042 31.9617 22.5803 34.6378 25.8763 34.6378C27.9249 34.6378 29.8299 33.5795 30.9185 31.8483H32.3623C32.4228 31.8483 32.4833 31.8181 32.5211 31.7727L34.0935 29.7392L35.6659 31.7727C35.6734 31.7878 35.6885 31.7954 35.7036 31.8105C35.7944 31.8786 35.9153 31.8634 35.9834 31.7727L37.5557 29.7392L39.1281 31.7727C39.1357 31.7878 39.1508 31.7954 39.1659 31.8105C39.2491 31.8786 39.3776 31.8634 39.4456 31.7727L41.7588 28.7867C41.7891 28.7489 41.8042 28.7111 41.8042 28.6733ZM25.9745 28.6658C25.9745 29.5427 25.2639 30.2608 24.3795 30.2608C23.5026 30.2608 22.7844 29.5502 22.7844 28.6658C22.7844 27.7888 23.495 27.0707 24.3795 27.0707C25.2639 27.0707 25.9745 27.7813 25.9745 28.6658Z" fill="white"/>
<path d="M0.786191 9.01099H0V24.251H0.786191C2.43417 24.251 3.78733 22.8978 3.78733 21.2499V12.0121C3.78733 10.3641 2.43417 9.01099 0.786191 9.01099Z" fill="#CDC4C2"/>
<path d="M0.786191 34.5471H0V49.7871H0.786191C2.43417 49.7871 3.78733 48.434 3.78733 46.786V37.5483C3.78733 35.9003 2.43417 34.5471 0.786191 34.5471Z" fill="#CDC4C2"/>
</g>
<defs>
<clipPath id="clip0">
<rect width="60" height="60" fill="white"/>
</clipPath>
</defs>
</svg>
