<svg width="66" height="61" viewBox="0 0 66 61" fill="none" xmlns="http://www.w3.org/2000/svg">
<g clip-path="url(#clip0)">
<path d="M61.0427 59.1708C61.0427 60.1779 60.22 61 59.2122 61H1.83046C0.822631 61 0 60.1779 0 59.1708V1.82918C0 0.822056 0.822631 0 1.83046 0H59.2122C60.22 0 61.0427 0.822056 61.0427 1.82918V59.1708Z" fill="#685B56"/>
<path d="M29.632 46.7668H23.1973C23.1973 47.2402 22.8097 47.6276 22.3359 47.6276C21.8622 47.6276 21.4746 47.2402 21.4746 46.7668L21.4616 17.4439C21.4616 14.9605 19.446 12.9463 16.9608 12.9463C14.4757 12.9463 12.4601 14.9605 12.4601 17.4439L12.4687 35.6411H12.4601C12.4601 36.1145 12.0724 36.5019 11.5987 36.5019C11.1249 36.5019 10.7373 36.1145 10.7373 35.6411C10.7373 35.6368 10.7373 35.6325 10.7373 35.6281L10.733 23.7449C8.24785 23.7449 6.23218 25.7592 6.23218 28.2426L6.2408 40.8876C6.24511 40.9134 6.24941 40.9392 6.24941 40.9651C6.24941 41.4385 5.86179 41.8258 5.38802 41.8258C4.91425 41.8258 4.52662 41.4385 4.52662 40.9651H4.5137L4.5094 31.3328C2.01566 31.3371 0 33.3514 0 35.8347L0.00430697 43.4743C0.00430697 43.5087 0 43.5431 0 43.5733V61H32.1903C32.1946 60.8924 32.1989 60.7848 32.2032 60.6772V49.332C32.2032 47.9246 31.0446 46.7668 29.632 46.7668Z" fill="#FAAE7A"/>
<path d="M66.0001 6.92937C66.0001 5.49615 64.8242 4.32117 63.39 4.32117H19.5709C18.1367 4.32117 16.9609 5.49615 16.9609 6.92937V39.9795C16.9609 41.4127 18.1367 42.5877 19.5709 42.5877H63.39C64.8242 42.5877 66.0001 41.4127 66.0001 39.9795V6.92937Z" fill="#00C1AA"/>
<path d="M61.4778 37.8619V26.422C61.4778 25.8926 61.0213 25.4579 60.4571 25.4579H36.9884C36.4242 25.4579 35.9676 25.8926 35.9676 26.422V37.8619H61.4778Z" fill="#685B56"/>
<path d="M55.7238 15.6277C55.7238 11.7885 52.6056 8.67676 48.7637 8.67676C44.9176 8.67676 41.8037 11.7885 41.8037 15.6277C41.8037 19.4668 44.9219 22.5785 48.7637 22.5785C52.6099 22.5785 55.7238 19.4668 55.7238 15.6277Z" fill="#685B56"/>
<path d="M45.9556 33.1748H39.4521V37.8618H45.9556V33.1748Z" fill="#CDC4C2"/>
<path d="M32.1859 29.9555L32.2032 50.9674C32.2032 53.4508 30.1875 55.4651 27.7024 55.4651C25.2173 55.4651 23.2016 53.4508 23.2016 50.9674L23.1844 29.9555C23.1844 27.4721 25.2 25.4579 27.6852 25.4579C30.166 25.4579 32.1859 27.4721 32.1859 29.9555Z" fill="#FAAE7A"/>
<path d="M30.1013 8.89197L26.6902 12.305L25.2818 10.8976L23.7916 12.3825L26.6902 15.279L26.6988 15.2661L31.5915 10.3768L30.1013 8.89197Z" fill="white"/>
<path d="M31.5915 17.4612L30.1013 15.9763L26.6902 19.3894L25.2818 17.982L23.7916 19.4668L26.6902 22.3634L26.6988 22.3505" fill="white"/>
</g>
<defs>
<clipPath id="clip0">
<rect width="66" height="61" fill="white"/>
</clipPath>
</defs>
</svg>
