<svg width="64" height="64" viewBox="0 0 64 64" fill="none" xmlns="http://www.w3.org/2000/svg">
<path d="M64 61.3229C64 62.7985 62.7985 64 61.3229 64H2.67708C1.20146 64 0 62.7985 0 61.3229V2.67708C0 1.20146 1.20146 0 2.67708 0H61.3229C62.7985 0 64 1.20146 64 2.67708V61.3229Z" fill="#DA1A32"/>
<path d="M47.3408 51.5419C47.3408 52.1708 46.8248 52.6869 46.1958 52.6869H11.1922C10.5632 52.6869 10.0471 52.1708 10.0471 51.5419V16.5301C10.0471 15.9012 10.5632 15.3851 11.1922 15.3851H46.2039C46.8328 15.3851 47.3489 15.9012 47.3489 16.5301V51.5419H47.3408Z" fill="white"/>
<path d="M44.2364 29.464H12.2968V49.5179H44.2364V29.464Z" fill="#DA1A32"/>
<path d="M35.1891 31.5121H14.0708V34.1811H35.1891V31.5121Z" fill="white"/>
<path d="M44.2363 24.4888C44.2363 24.6339 44.1234 24.7468 43.9783 24.7468H38.0678C37.9226 24.7468 37.8097 24.6339 37.8097 24.4888V18.5782C37.8097 18.4331 37.9226 18.3202 38.0678 18.3202H43.9783C44.1234 18.3202 44.2363 18.4331 44.2363 18.5782V24.4888Z" fill="#DA1A32"/>
<path d="M38.9386 21.5375C38.9386 22.4326 39.495 23.1906 40.2852 23.4889V19.5862C39.495 19.8845 38.9386 20.6425 38.9386 21.5375Z" fill="white"/>
<path d="M41.0271 19.4491C40.9706 19.4491 40.9142 19.4491 40.8577 19.4572V19.6023H40.8658C41.6641 19.6104 42.3011 20.2151 42.293 20.957C42.285 21.6988 41.6399 22.2955 40.8497 22.2874V23.6099C40.9061 23.6179 40.9625 23.6179 41.019 23.6179C42.1721 23.6179 43.1074 22.6826 43.1074 21.5295C43.1074 20.3845 42.1801 19.4491 41.0271 19.4491Z" fill="white"/>
<path d="M46.8892 17.9735C45.6716 17.1188 44.3492 17.2881 43.7203 18.3283C43.0833 19.3765 43.4219 20.7312 44.5669 21.6585C45.4701 22.3923 47.0505 23.9002 47.3408 23.9486V42.3898C48.5422 42.3736 50.2759 42.3495 51.7838 42.3091C51.8322 42.3091 51.8725 42.3011 51.9208 42.3011V21.5698C50.2356 20.3845 48.5745 19.1508 46.8892 17.9735Z" fill="#FAAE7A"/>
<path d="M51.9209 20.6667V21.5699V42.285V42.3818H64V20.6667H51.9209Z" fill="#3EBDAC"/>
<path d="M28.2625 19.3605H14.0708V27.8513H28.2625V19.3605Z" fill="white"/>
</svg>
