<svg width="57" height="57" viewBox="0 0 57 57" fill="none" xmlns="http://www.w3.org/2000/svg">
<g clip-path="url(#clip0)">
<path d="M1.70924 0C0.768151 0 0 0.768151 0 1.70924V55.2908C0 56.2318 0.768151 57 1.70924 57H55.2908C56.2318 57 57 56.2318 57 55.2908V1.70924C57 0.768151 56.2318 0 55.2908 0H1.70924Z" fill="#F05B7D"/>
<path d="M46.4631 31.7153C46.4631 32.6041 45.7432 33.328 44.8544 33.328H12.1497C11.2609 33.328 10.541 32.6082 10.541 31.7153V16.111C10.541 15.2222 11.2609 14.4983 12.1497 14.4983H44.8504C45.7392 14.4983 46.4591 15.2182 46.4591 16.111V31.7153H46.4631Z" fill="white"/>
<path d="M32.584 17.9128C32.584 17.5548 32.2944 17.2653 31.9365 17.2653H29.3666C29.0086 17.2653 28.7191 17.5548 28.7191 17.9128V25.1358H32.584V17.9128Z" fill="#685B56"/>
<path d="M20.6033 17.9128C20.6033 17.5548 20.3137 17.2653 19.9558 17.2653H18.9302C18.5723 17.2653 18.2827 17.5548 18.2827 17.9128V25.1358H20.6033V17.9128Z" fill="#685B56"/>
<path d="M35.6848 17.9128C35.6848 17.5548 35.3953 17.2653 35.0373 17.2653H34.3255C33.9675 17.2653 33.678 17.5548 33.678 17.9128V25.1358H35.6848V17.9128Z" fill="#685B56"/>
<path d="M38.307 17.9128C38.307 17.5548 38.0174 17.2653 37.6595 17.2653H37.2613C36.9034 17.2653 36.6138 17.5548 36.6138 17.9128V25.1358H38.307V17.9128Z" fill="#685B56"/>
<path d="M27.5447 17.9128C27.5447 17.5548 27.2551 17.2653 26.8972 17.2653H22.2561C21.8981 17.2653 21.6086 17.5548 21.6086 17.9128V25.1358H27.5447V17.9128Z" fill="#685B56"/>
<path d="M43.676 17.9128C43.676 17.5548 43.3864 17.2653 43.0285 17.2653H39.9559C39.5979 17.2653 39.3084 17.5548 39.3084 17.9128V25.1358H43.676V17.9128Z" fill="#685B56"/>
<path d="M41.4159 55.5281C42.9643 52.6003 43.7726 49.3386 43.7726 46.0247V38.0979H13.2276V46.0247C13.2276 49.3386 14.0359 52.6003 15.5843 55.5281L16.3605 57H40.6357L41.4159 55.5281Z" fill="white"/>
<path d="M30.3398 43.8973C30.3398 44.9147 29.5154 45.7392 28.4979 45.7392C27.4804 45.7392 26.6559 44.9147 26.6559 43.8973C26.6559 42.8798 27.4804 42.0553 28.4979 42.0553C29.5154 42.0553 30.3398 42.8798 30.3398 43.8973Z" fill="#ED1C24"/>
<path d="M49.7889 26.3022C49.9176 26.0528 49.9055 25.7552 49.7567 25.5179C49.6119 25.2806 49.3505 25.1359 49.073 25.1359H7.92264C7.64514 25.1359 7.38373 25.2806 7.23895 25.5179C7.09417 25.7552 7.0821 26.0528 7.2108 26.3022L13.2273 38.1019H43.7723L49.7889 26.3022Z" fill="#00C1AA"/>
<path d="M41.5727 34.3174H15.4275C14.2129 34.3174 13.2276 35.3027 13.2276 36.5173V38.1018H43.7726V36.5173C43.7726 35.3027 42.7873 34.3174 41.5727 34.3174Z" fill="#66727A"/>
<path d="M29.3666 30.5652H31.9365C32.2944 30.5652 32.584 30.2756 32.584 29.9177V25.1318H28.7191V29.9137C28.7191 30.2756 29.0086 30.5652 29.3666 30.5652Z" fill="#190B12"/>
<path d="M18.9343 30.5652H19.9599C20.3178 30.5652 20.6074 30.2756 20.6074 29.9177V25.1318H18.2868V29.9137C18.2868 30.2756 18.5764 30.5652 18.9343 30.5652Z" fill="#190B12"/>
<path d="M34.3255 30.5652H35.0373C35.3953 30.5652 35.6848 30.2756 35.6848 29.9177V25.1318H33.678V29.9137C33.682 30.2756 33.9716 30.5652 34.3255 30.5652Z" fill="#190B12"/>
<path d="M37.2613 30.5652H37.6595C38.0174 30.5652 38.307 30.2756 38.307 29.9177V25.1318H36.6138V29.9137C36.6138 30.2756 36.9034 30.5652 37.2613 30.5652Z" fill="#190B12"/>
<path d="M22.2561 30.5652H26.8972C27.2551 30.5652 27.5447 30.2756 27.5447 29.9177V25.1318H21.6086V29.9137C21.6086 30.2756 21.8981 30.5652 22.2561 30.5652Z" fill="#190B12"/>
<path d="M39.9559 30.5652H43.0285C43.3864 30.5652 43.676 30.2756 43.676 29.9177V25.1318H39.3084V29.9137C39.3084 30.2756 39.5979 30.5652 39.9559 30.5652Z" fill="#190B12"/>
</g>
<defs>
<clipPath id="clip0">
<rect width="57" height="57" fill="white"/>
</clipPath>
</defs>
</svg>
