<svg width="63" height="63" viewBox="0 0 63 63" fill="none" xmlns="http://www.w3.org/2000/svg">
<g clip-path="url(#clip0)">
<path d="M63 60.4841C63 61.8754 61.871 63.0044 60.4796 63.0044H2.52036C1.12905 63.0044 0 61.8754 0 60.4841V2.52036C0 1.12905 1.12905 0 2.52036 0H60.4796C61.871 0 63 1.12905 63 2.52036V60.4841Z" fill="url(#paint0_linear)"/>
<path d="M9.05471 7.10324C9.05471 8.18339 8.17903 9.05463 7.10332 9.05463C6.02317 9.05463 5.15194 8.17895 5.15194 7.10324C5.15194 6.02753 6.02761 5.15186 7.10332 5.15186C8.18347 5.15186 9.05471 6.02753 9.05471 7.10324Z" fill="white"/>
<path d="M13.9354 7.10324C13.9354 8.18339 13.0597 9.05463 11.984 9.05463C10.9083 9.05463 10.0326 8.17895 10.0326 7.10324C10.0326 6.02753 10.9083 5.15186 11.984 5.15186C13.0597 5.15186 13.9354 6.02753 13.9354 7.10324Z" fill="white"/>
<path d="M18.8161 7.10324C18.8161 8.18339 17.9404 9.05463 16.8647 9.05463C15.789 9.05463 14.9133 8.17895 14.9133 7.10324C14.9133 6.02753 15.789 5.15186 16.8647 5.15186C17.9404 5.15186 18.8161 6.02753 18.8161 7.10324Z" fill="white"/>
<path d="M23.6922 7.10324C23.6922 8.18339 22.8165 9.05463 21.7408 9.05463C20.6651 9.05463 19.7894 8.17895 19.7894 7.10324C19.7894 6.02753 20.6651 5.15186 21.7408 5.15186C22.8209 5.15186 23.6922 6.02753 23.6922 7.10324Z" fill="white"/>
<path d="M28.5729 7.10324C28.5729 8.18339 27.6972 9.05463 26.6215 9.05463C25.5414 9.05463 24.6701 8.17895 24.6701 7.10324C24.6701 6.02753 25.5458 5.15186 26.6215 5.15186C27.6972 5.15186 28.5729 6.02753 28.5729 7.10324Z" fill="white"/>
<path d="M33.4536 7.10324C33.4536 8.18339 32.5779 9.05463 31.5022 9.05463C30.422 9.05463 29.5508 8.17895 29.5508 7.10324C29.5508 6.02753 30.4265 5.15186 31.5022 5.15186C32.5779 5.15186 33.4536 6.02753 33.4536 7.10324Z" fill="white"/>
<path d="M38.33 7.10324C38.33 8.18339 37.4544 9.05463 36.3787 9.05463C35.2985 9.05463 34.4273 8.17895 34.4273 7.10324C34.4273 6.02753 35.303 5.15186 36.3787 5.15186C37.4588 5.15186 38.33 6.02753 38.33 7.10324Z" fill="white"/>
<path d="M43.2108 7.10324C43.2108 8.18339 42.3351 9.05463 41.2594 9.05463C40.1837 9.05463 39.308 8.17895 39.308 7.10324C39.308 6.02753 40.1837 5.15186 41.2594 5.15186C42.3395 5.15186 43.2108 6.02753 43.2108 7.10324Z" fill="white"/>
<path d="M48.0914 7.10324C48.0914 8.18339 47.2158 9.05463 46.1401 9.05463C45.0643 9.05463 44.1887 8.17895 44.1887 7.10324C44.1887 6.02753 45.0643 5.15186 46.1401 5.15186C47.2158 5.15186 48.0914 6.02753 48.0914 7.10324Z" fill="white"/>
<path d="M52.9675 7.10324C52.9675 8.18339 52.0918 9.05463 51.0161 9.05463C49.9404 9.05463 49.0647 8.17895 49.0647 7.10324C49.0647 6.02753 49.9404 5.15186 51.0161 5.15186C52.0963 5.15186 52.9675 6.02753 52.9675 7.10324Z" fill="white"/>
<path d="M57.8486 7.10324C57.8486 8.18339 56.9729 9.05463 55.8972 9.05463C54.8215 9.05463 53.9458 8.17895 53.9458 7.10324C53.9458 6.02753 54.8215 5.15186 55.8972 5.15186C56.9729 5.15186 57.8486 6.02753 57.8486 7.10324Z" fill="white"/>
<path d="M53.9458 55.8968C53.9458 54.8167 54.8215 53.9454 55.8972 53.9454C56.9774 53.9454 57.8486 54.8211 57.8486 55.8968C57.8486 56.9725 56.9729 57.8482 55.8972 57.8482C54.8171 57.8482 53.9458 56.9725 53.9458 55.8968Z" fill="white"/>
<path d="M49.0647 55.8968C49.0647 54.8167 49.9404 53.9454 51.0161 53.9454C52.0963 53.9454 52.9675 54.8211 52.9675 55.8968C52.9675 56.9725 52.0918 57.8482 51.0161 57.8482C49.9404 57.8482 49.0647 56.9725 49.0647 55.8968Z" fill="white"/>
<path d="M44.184 55.8968C44.184 54.8167 45.0597 53.9454 46.1354 53.9454C47.2111 53.9454 48.0868 54.8211 48.0868 55.8968C48.0868 56.9725 47.2111 57.8482 46.1354 57.8482C45.0597 57.8482 44.184 56.9725 44.184 55.8968Z" fill="white"/>
<path d="M39.308 55.8968C39.308 54.8167 40.1837 53.9454 41.2594 53.9454C42.3351 53.9454 43.2108 54.8211 43.2108 55.8968C43.2108 56.9725 42.3351 57.8482 41.2594 57.8482C40.1792 57.8482 39.308 56.9725 39.308 55.8968Z" fill="white"/>
<path d="M34.4273 55.8968C34.4273 54.8167 35.303 53.9454 36.3787 53.9454C37.4588 53.9454 38.33 54.8211 38.33 55.8968C38.33 56.9725 37.4544 57.8482 36.3787 57.8482C35.303 57.8482 34.4273 56.9725 34.4273 55.8968Z" fill="white"/>
<path d="M29.5508 55.8968C29.5508 54.8167 30.4265 53.9454 31.5022 53.9454C32.5823 53.9454 33.4536 54.8211 33.4536 55.8968C33.4536 56.9725 32.5779 57.8482 31.5022 57.8482C30.422 57.8482 29.5508 56.9725 29.5508 55.8968Z" fill="white"/>
<path d="M24.6701 55.8968C24.6701 54.8167 25.5458 53.9454 26.6215 53.9454C27.7017 53.9454 28.5729 54.8211 28.5729 55.8968C28.5729 56.9725 27.6972 57.8482 26.6215 57.8482C25.5414 57.8482 24.6701 56.9725 24.6701 55.8968Z" fill="white"/>
<path d="M19.7894 55.8968C19.7894 54.8167 20.6651 53.9454 21.7408 53.9454C22.8165 53.9454 23.6922 54.8211 23.6922 55.8968C23.6922 56.9725 22.8165 57.8482 21.7408 57.8482C20.6651 57.8482 19.7894 56.9725 19.7894 55.8968Z" fill="white"/>
<path d="M14.9133 55.8968C14.9133 54.8167 15.789 53.9454 16.8647 53.9454C17.9404 53.9454 18.8161 54.8211 18.8161 55.8968C18.8161 56.9725 17.9404 57.8482 16.8647 57.8482C15.7846 57.8482 14.9133 56.9725 14.9133 55.8968Z" fill="white"/>
<path d="M10.0326 55.8968C10.0326 54.8167 10.9083 53.9454 11.984 53.9454C13.0597 53.9454 13.9354 54.8211 13.9354 55.8968C13.9354 56.9725 13.0597 57.8482 11.984 57.8482C10.9039 57.8482 10.0326 56.9725 10.0326 55.8968Z" fill="white"/>
<path d="M5.15194 55.8968C5.15194 54.8167 6.02761 53.9454 7.10332 53.9454C8.17903 53.9454 9.05471 54.8211 9.05471 55.8968C9.05471 56.9725 8.17903 57.8482 7.10332 57.8482C6.02761 57.8482 5.15194 56.9725 5.15194 55.8968Z" fill="white"/>
<path d="M7.10332 49.0647C8.18347 49.0647 9.05471 49.9404 9.05471 51.0161C9.05471 52.0962 8.17903 52.9675 7.10332 52.9675C6.02761 52.9675 5.15194 52.0918 5.15194 51.0161C5.15194 49.9404 6.02761 49.0647 7.10332 49.0647Z" fill="white"/>
<path d="M7.10332 44.184C8.18347 44.184 9.05471 45.0596 9.05471 46.1353C9.05471 47.2111 8.17903 48.0867 7.10332 48.0867C6.02761 48.0867 5.15194 47.2111 5.15194 46.1353C5.15194 45.0596 6.02761 44.184 7.10332 44.184Z" fill="white"/>
<path d="M7.10332 39.3077C8.18347 39.3077 9.05471 40.1834 9.05471 41.2591C9.05471 42.3348 8.17903 43.2105 7.10332 43.2105C6.02761 43.2105 5.15194 42.3348 5.15194 41.2591C5.15194 40.179 6.02761 39.3077 7.10332 39.3077Z" fill="white"/>
<path d="M7.10332 34.4271C8.18347 34.4271 9.05471 35.3028 9.05471 36.3785C9.05471 37.4587 8.17903 38.3299 7.10332 38.3299C6.02761 38.3299 5.15194 37.4542 5.15194 36.3785C5.15194 35.3028 6.02761 34.4271 7.10332 34.4271Z" fill="white"/>
<path d="M7.10332 29.5509C8.18347 29.5509 9.05471 30.4266 9.05471 31.5023C9.05471 32.5824 8.17903 33.4537 7.10332 33.4537C6.02761 33.4537 5.15194 32.578 5.15194 31.5023C5.15194 30.4221 6.02761 29.5509 7.10332 29.5509Z" fill="white"/>
<path d="M7.10332 24.6702C8.18347 24.6702 9.05471 25.5458 9.05471 26.6216C9.05471 27.7017 8.17903 28.5729 7.10332 28.5729C6.02761 28.5729 5.15194 27.6973 5.15194 26.6216C5.15194 25.5414 6.02761 24.6702 7.10332 24.6702Z" fill="white"/>
<path d="M7.10332 19.7894C8.18347 19.7894 9.05471 20.6651 9.05471 21.7408C9.05471 22.8165 8.17903 23.6922 7.10332 23.6922C6.02761 23.6922 5.15194 22.8165 5.15194 21.7408C5.15194 20.6651 6.02761 19.7894 7.10332 19.7894Z" fill="white"/>
<path d="M7.10332 14.9132C8.18347 14.9132 9.05471 15.7889 9.05471 16.8646C9.05471 17.9403 8.17903 18.816 7.10332 18.816C6.02761 18.816 5.15194 17.9403 5.15194 16.8646C5.15194 15.7844 6.02761 14.9132 7.10332 14.9132Z" fill="white"/>
<path d="M7.10332 10.0326C8.18347 10.0326 9.05471 10.9083 9.05471 11.984C9.05471 13.0597 8.17903 13.9354 7.10332 13.9354C6.02761 13.9354 5.15194 13.0597 5.15194 11.984C5.15194 10.9038 6.02761 10.0326 7.10332 10.0326Z" fill="white"/>
<path d="M55.8968 7.10327H7.10323V55.8968H55.8968V7.10327Z" fill="white"/>
<path d="M55.8965 13.9354C54.8164 13.9354 53.9451 13.0597 53.9451 11.984C53.9451 10.9038 54.8208 10.0326 55.8965 10.0326C56.9722 10.0326 57.8479 10.9083 57.8479 11.984C57.8479 13.0641 56.9722 13.9354 55.8965 13.9354Z" fill="white"/>
<path d="M55.8965 18.816C54.8164 18.816 53.9451 17.9403 53.9451 16.8646C53.9451 15.7889 54.8208 14.9132 55.8965 14.9132C56.9722 14.9132 57.8479 15.7889 57.8479 16.8646C57.8479 17.9403 56.9722 18.816 55.8965 18.816Z" fill="white"/>
<path d="M55.8965 23.6922C54.8164 23.6922 53.9451 22.8165 53.9451 21.7408C53.9451 20.6651 54.8208 19.7894 55.8965 19.7894C56.9722 19.7894 57.8479 20.6651 57.8479 21.7408C57.8479 22.821 56.9722 23.6922 55.8965 23.6922Z" fill="white"/>
<path d="M55.8965 28.5729C54.8164 28.5729 53.9451 27.6973 53.9451 26.6216C53.9451 25.5414 54.8208 24.6702 55.8965 24.6702C56.9722 24.6702 57.8479 25.5458 57.8479 26.6216C57.8479 27.6973 56.9722 28.5729 55.8965 28.5729Z" fill="white"/>
<path d="M55.8965 33.4537C54.8164 33.4537 53.9451 32.578 53.9451 31.5023C53.9451 30.4221 54.8208 29.5509 55.8965 29.5509C56.9722 29.5509 57.8479 30.4266 57.8479 31.5023C57.8479 32.578 56.9722 33.4537 55.8965 33.4537Z" fill="white"/>
<path d="M55.8965 38.3299C54.8164 38.3299 53.9451 37.4542 53.9451 36.3785C53.9451 35.2984 54.8208 34.4271 55.8965 34.4271C56.9722 34.4271 57.8479 35.3028 57.8479 36.3785C57.8479 37.4587 56.9722 38.3299 55.8965 38.3299Z" fill="white"/>
<path d="M55.8965 43.2105C54.8164 43.2105 53.9451 42.3348 53.9451 41.2591C53.9451 40.1834 54.8208 39.3077 55.8965 39.3077C56.9722 39.3077 57.8479 40.1834 57.8479 41.2591C57.8479 42.3393 56.9722 43.2105 55.8965 43.2105Z" fill="white"/>
<path d="M55.8965 48.0912C54.8164 48.0912 53.9451 47.2156 53.9451 46.1399C53.9451 45.0642 54.8208 44.1885 55.8965 44.1885C56.9722 44.1885 57.8479 45.0642 57.8479 46.1399C57.8479 47.2156 56.9722 48.0912 55.8965 48.0912Z" fill="white"/>
<path d="M55.8965 52.9675C54.8164 52.9675 53.9451 52.0918 53.9451 51.0161C53.9451 49.9404 54.8208 49.0647 55.8965 49.0647C56.9722 49.0647 57.8479 49.9404 57.8479 51.0161C57.8479 52.0962 56.9722 52.9675 55.8965 52.9675Z" fill="white"/>
<path d="M52.7452 51.9007C52.7452 52.6075 52.1673 53.1898 51.4561 53.1898H11.5393C10.8326 53.1898 10.2503 52.6119 10.2503 51.9007V11.0994C10.2503 10.3926 10.8281 9.8103 11.5393 9.8103H51.4561C52.1628 9.8103 52.7452 10.3882 52.7452 11.0994V51.9007Z" fill="#3EBDAC"/>
<path d="M23.9635 26.5149H17.367V31.7556H23.9635V26.5149Z" fill="#7DB5DA"/>
<path d="M31.6623 29.773C31.8489 30.2931 31.5822 30.871 31.0711 31.0577L30.0843 31.4222C29.5686 31.6133 29.0041 31.3421 28.8174 30.8221C28.6307 30.302 28.8974 29.7241 29.4086 29.5375L30.3954 29.1774C30.9066 28.9818 31.4756 29.253 31.6623 29.773Z" fill="#F3C8AA"/>
<path d="M26.906 32.6712C27.0438 32.649 27.1816 32.6001 27.3016 32.529L30.4932 31.3688C30.4932 31.3688 29.7686 29.373 29.7686 29.3685C29.7864 29.4174 27.7639 30.182 27.5594 30.2086C26.7015 30.3287 26.2259 30.0397 25.4836 29.693C24.3679 29.1685 23.2655 28.6217 22.1587 28.0839C21.5986 27.8127 20.9274 28.0439 20.6518 28.5995C20.3806 29.1596 20.6118 29.8308 21.1674 30.1064L26.2259 32.5734C26.3815 32.649 26.5459 32.6845 26.7104 32.6845" fill="#7DB5DA"/>
<path d="M25.4437 19.3717L26.4438 21.8032C26.5372 22.0298 26.3905 22.3188 26.1282 22.3188L25.7193 22.4655V23.9057C25.7193 24.3813 25.3237 24.7725 24.8347 24.7725H23.9546V26.5194H19.9807V22.5366C19.4028 21.9587 19.0428 21.1631 19.0428 20.2918C19.0428 18.5227 20.5052 17.0869 22.3143 17.0869C23.7901 17.0825 25.0392 18.0471 25.4437 19.3717Z" fill="#F3C8AA"/>
<path d="M24.559 21.2252C24.6835 21.2252 24.7812 21.123 24.7812 20.9986C24.7812 20.8741 24.679 20.7719 24.559 20.7719C24.4345 20.7719 24.3367 20.8741 24.3367 20.9986C24.3367 21.123 24.4345 21.2252 24.559 21.2252Z" fill="#190B12"/>
<path d="M25.6971 23.3944C25.2348 23.3944 24.9015 23.27 24.6125 23.0833C24.5636 23.0522 24.537 23.0655 24.577 23.1144C24.7637 23.3455 25.1593 23.63 25.6971 23.63V23.3944Z" fill="#E56235"/>
<path d="M25.808 19.9806C25.5591 18.1803 24.1011 16.7935 22.3364 16.7935C20.3984 16.7935 18.8248 18.4648 18.8248 20.5273C18.8248 22.252 19.9272 23.7055 21.4207 24.1323V19.9761H25.808V19.9806Z" fill="#190B12"/>
<path d="M24.559 22.0164C25.1191 22.0164 25.5769 21.5586 25.5769 20.9985C25.5769 20.434 25.1191 19.9806 24.559 19.9806C23.9945 19.9806 23.5411 20.4384 23.5411 20.9985C23.5411 21.563 23.9945 22.0164 24.559 22.0164Z" fill="white"/>
<path d="M24.559 22.0164C25.1191 22.0164 25.5769 21.5586 25.5769 20.9985C25.5769 20.434 25.1191 19.9806 24.559 19.9806C23.9945 19.9806 23.5411 20.4384 23.5411 20.9985C23.5411 21.563 23.9945 22.0164 24.559 22.0164Z" stroke="#190B12" stroke-width="0.911"/>
<path d="M23.5768 20.7808H20.6074V21.3097H23.5768V20.7808Z" fill="#190B12"/>
<path d="M25.5769 20.7808V21.1808L26.1503 21.163L26.0081 20.7808H25.5769Z" fill="#190B12"/>
<path d="M23.968 23.35H13.4776V26.6838H23.968V23.35Z" fill="#DA1A32"/>
<path d="M13.4775 24.9324H11.9839V25.0968H13.4775V24.9324Z" fill="#DA1A32"/>
<path d="M13.4775 25.2524H11.9839V25.4169H13.4775V25.2524Z" fill="#DA1A32"/>
<path d="M13.4775 23.35H11.9839V23.5144H13.4775V23.35Z" fill="#DA1A32"/>
<path d="M13.4775 25.5681H11.9839V25.7326H13.4775V25.5681Z" fill="#DA1A32"/>
<path d="M13.4775 23.67H11.9839V23.8345H13.4775V23.67Z" fill="#DA1A32"/>
<path d="M13.4775 25.8837H11.9839V26.0481H13.4775V25.8837Z" fill="#DA1A32"/>
<path d="M13.4775 23.9856H11.9839V24.1501H13.4775V23.9856Z" fill="#DA1A32"/>
<path d="M13.4775 26.1992H11.9839V26.3637H13.4775V26.1992Z" fill="#DA1A32"/>
<path d="M13.4775 24.3013H11.9839V24.4657H13.4775V24.3013Z" fill="#DA1A32"/>
<path d="M13.4775 26.5149H11.9839V26.6794H13.4775V26.5149Z" fill="#DA1A32"/>
<path d="M13.4775 24.6168H11.9839V24.7813H13.4775V24.6168Z" fill="#DA1A32"/>
<path d="M43.2683 35.7828C44.0729 35.854 43.9618 37.103 43.1572 37.0319C42.3527 36.9608 42.4638 35.7117 43.2683 35.7828Z" fill="#190B12"/>
<path d="M40.6811 35.8718C41.4857 35.9429 41.379 37.192 40.57 37.1209C39.7655 37.0498 39.8766 35.8007 40.6811 35.8718Z" fill="#190B12"/>
<path d="M37.9076 35.9429C38.7121 36.014 38.6054 37.2631 37.7964 37.1919C36.9919 37.1208 37.0986 35.8717 37.9076 35.9429Z" fill="#190B12"/>
<path d="M45.3529 36.5518C47.1621 36.5518 48.629 35.0849 48.629 33.2758C48.629 31.4666 47.1621 29.9998 45.3529 29.9998C43.5438 29.9998 42.0769 31.4666 42.0769 33.2758C42.0769 35.0849 43.5438 36.5518 45.3529 36.5518Z" fill="#9CA8B3"/>
<path d="M45.7486 34.6181L45.6508 30.3598C45.5486 27.7061 43.3572 25.608 40.7524 25.4835C40.7479 25.4835 40.739 25.4835 40.7301 25.4835L40.7746 25.4791C40.7746 25.4791 40.819 25.4791 40.3879 25.3991L27.5772 23.061C27.5772 23.061 27.1504 22.9809 27.1682 23.4166L27.3505 27.6038C27.0438 29.5952 25.4435 31.2132 23.3454 31.4532L22.4475 31.5555C19.9361 31.84 17.6646 30.0353 17.3802 27.5194L17.3713 27.4349C17.3713 27.4349 17.3624 27.3504 16.9312 27.4171C14.7487 27.7594 12.4906 28.1239 10.2503 28.5551V41.7214C20.2561 42.6637 32.6223 42.7393 40.9524 42.1436C41.0991 42.1392 41.2458 42.1259 41.3924 42.1036C43.9795 41.7836 45.9353 39.5255 45.8331 36.8718L45.7486 34.6181Z" fill="url(#paint1_linear)"/>
<path d="M45.8731 18.4738C45.8731 19.5807 44.9752 20.4786 43.8684 20.4786H36.1206C35.0138 20.4786 34.1159 19.5807 34.1159 18.4738C34.1159 17.367 35.0138 16.4691 36.1206 16.4691H43.8684C44.9752 16.4691 45.8731 17.367 45.8731 18.4738Z" fill="white"/>
<path d="M40.5834 16.9269C40.5834 18.1849 39.5655 19.2073 38.3031 19.2073C37.0452 19.2073 36.0228 18.1893 36.0228 16.9269C36.0228 15.6645 37.0407 14.6466 38.3031 14.6466C39.5655 14.6466 40.5834 15.669 40.5834 16.9269Z" fill="white"/>
<path d="M43.6861 16.1045C43.6861 17.3625 42.6682 18.3849 41.4058 18.3849C40.1479 18.3849 39.1255 17.3669 39.1255 16.1045C39.1255 14.8421 40.1434 13.8242 41.4058 13.8242C42.6638 13.8287 43.6861 14.8466 43.6861 16.1045Z" fill="white"/>
<path d="M11.0906 47.6823C10.6327 47.6823 10.2549 47.3045 10.2549 46.8467V35.4984C10.2549 35.0405 10.6327 34.6627 11.0906 34.6627H27.5284C27.9863 34.6627 28.2219 35.0094 28.0485 35.4362L23.3456 46.9089C23.1723 47.3356 22.6522 47.6823 22.1943 47.6823H11.0906Z" fill="#190B12"/>
<path d="M46.0287 42.9083C46.0287 43.1261 45.842 43.3039 45.6108 43.3039H45.3397C45.1086 43.3039 44.9219 43.1261 44.9219 42.9083V25.1102C44.9219 24.8924 45.1086 24.7146 45.3397 24.7146H45.6108C45.842 24.7146 46.0287 24.8924 46.0287 25.1102V42.9083Z" fill="#190B12"/>
</g>
<defs>
<linearGradient id="paint0_linear" x1="0" y1="31.5005" x2="63.001" y2="31.5005" gradientUnits="userSpaceOnUse">
<stop stop-color="#807371"/>
<stop offset="0.1758" stop-color="#807371"/>
<stop offset="0.2692" stop-color="#807371"/>
<stop offset="1" stop-color="#807371"/>
</linearGradient>
<linearGradient id="paint1_linear" x1="10.2531" y1="32.7907" x2="45.8401" y2="32.7907" gradientUnits="userSpaceOnUse">
<stop stop-color="#807371"/>
<stop offset="0.1758" stop-color="#807371"/>
<stop offset="0.2692" stop-color="#807371"/>
<stop offset="1" stop-color="#807371"/>
</linearGradient>
<clipPath id="clip0">
<rect width="63" height="63" fill="white"/>
</clipPath>
</defs>
</svg>
