<?xml version="1.0" encoding="UTF-8"?>
<svg width="26px" height="26px" viewBox="0 0 26 26" version="1.1" xmlns="http://www.w3.org/2000/svg" xmlns:xlink="http://www.w3.org/1999/xlink">
    <!-- Generator: Sketch 51.2 (57519) - http://www.bohemiancoding.com/sketch -->
    <title>Icons/Action/Cart</title>
    <desc>Created with Sketch.</desc>
    <defs>
        <path d="M19.326,15.641 C19.263,15.854 19.068,16 18.846,16 L10.156,16 C9.933,16 9.738,15.852 9.676,15.639 L7.46,7 L21.58,7 L19.326,15.641 Z M6.96,5 L6.309,2.792 C5.996,1.729 5.02,1 3.911,1 L1,1 L1,3 L3.843,3 C4.066,3 4.263,3.147 4.324,3.362 L7.702,16.186 C8.009,17.26 8.99,18 10.106,18 L18.905,18 C20.016,18 20.994,17.266 21.305,16.2 L24.28,5 L6.96,5 Z M12.0003,21.9995 C12.0003,23.1045 11.1053,23.9995 10.0003,23.9995 C8.8953,23.9995 8.0003,23.1045 8.0003,21.9995 C8.0003,20.8945 8.8953,19.9995 10.0003,19.9995 C11.1053,19.9995 12.0003,20.8945 12.0003,21.9995 M21.0003,21.9995 C21.0003,23.1045 20.1053,23.9995 19.0003,23.9995 C17.8953,23.9995 17.0003,23.1045 17.0003,21.9995 C17.0003,20.8945 17.8953,19.9995 19.0003,19.9995 C20.1053,19.9995 21.0003,20.8945 21.0003,21.9995" id="path-1"></path>
    </defs>
    <g id="Icons/Action/Cart" stroke="none" stroke-width="1" fill="none" fill-rule="evenodd">
        <mask id="mask-2" fill="white">
            <use xlink:href="#path-1"></use>
        </mask>
        <use id="Mask" fill="#292F33" xlink:href="#path-1"></use>
        <g id="Colours/Solid/Post-grey" mask="url(#mask-2)" fill="#292F33">
            <g transform="translate(0.000000, -1.000000)" id="Rectangle">
                <rect x="0" y="0" width="26" height="26"></rect>
            </g>
        </g>
    </g>
</svg>